PathFileType	4	(X/Y/Z)	ptf.trc
DataRate	CameraRate	NumFrames	NumMarkers	Units	OrigDataRate	OrigDataStartFrame	OrigNumFrames
60.00	60.00	7	39	m	60.00	38	151
Frame#	Time	Sternum				R.Acromium				L.Acromium				Top.Head				R.ASIS				L.ASIS				V.Sacral				R.Thigh.Upper				R.Thigh.Front				R.Thigh.Rear				R.Knee.Lat				R.Knee.Med				R.Shank.Upper				R.Shank.Front				R.Shank.Rear				R.Ankle.Lat				R.Ankle.Med				R.Heel				R.Midfoot.Sup				R.Midfoot.Lat				R.Toe.Lat				R.Toe.Med				R.Toe.Tip				L.Thigh.Upper				L.Thigh.Front				L.Thigh.Rear				L.Knee.Lat				L.Knee.Med				L.Shank.Upper				L.Shank.Front				L.Shank.Rear				L.Ankle.Lat				L.Ankle.Med				L.Heel				L.Midfoot.Sup				L.Midfoot.Lat				L.Toe.Lat				L.Toe.Med				L.Toe.Tip				
		X1	Y1	Z1		X2	Y2	Z2		X3	Y3	Z3		X4	Y4	Z4		X5	Y5	Z5		X6	Y6	Z6		X7	Y7	Z7		X8	Y8	Z8		X9	Y9	Z9		X10	Y10	Z10		X11	Y11	Z11		X12	Y12	Z12		X13	Y13	Z13		X14	Y14	Z14		X15	Y15	Z15		X16	Y16	Z16		X17	Y17	Z17		X18	Y18	Z18		X19	Y19	Z19		X20	Y20	Z20		X21	Y21	Z21		X22	Y22	Z22		X23	Y23	Z23		X24	Y24	Z24		X25	Y25	Z25		X26	Y26	Z26		X27	Y27	Z27		X28	Y28	Z28		X29	Y29	Z29		X30	Y30	Z30		X31	Y31	Z31		X32	Y32	Z32		X33	Y33	Z33		X34	Y34	Z34		X35	Y35	Z35		X36	Y36	Z36		X37	Y37	Z37		X38	Y38	Z38		X39	Y39	Z39		
38	0.616667	0.659011	1.35926	-0.00541041		0.554867	1.5087	0.1519		0.58299	1.5102	-0.187804		0.718358	1.74452	-0.0042505		0.609224	1.04106	0.117338		0.609279	1.04466	-0.14485		0.411309	1.03645	-0.00183399		0.639783	0.748622	0.172579		0.72892	0.716055	0.0880399		0.677871	0.633204	0.166008		0.67705	0.539388	0.14542		0.698467	0.525728	0.0256399		0.683835	0.447142	0.154876		0.773229	0.444111	0.112271		0.729312	0.374203	0.169185		0.842777	0.111608	0.154694		0.856679	0.129637	0.0668447		0.796396	0.0623661	0.097722		0.923394	0.135157	0.0751557		0.919832	0.108734	0.181088		1.01026	0.124225	0.197231		1.01409	0.143435	0.0897562		1.06677	0.167664	0.126626		0.477097	0.73182	-0.18987		0.548353	0.668706	-0.122587		0.437531	0.630946	-0.169475		0.375919	0.51478	-0.146174		0.391759	0.514988	-0.0310031		0.346119	0.439965	-0.158216		0.376096	0.377341	-0.106334		0.313476	0.405909	-0.165157		0.221858	0.106781	-0.120478		0.245183	0.126752	-0.0312459		0.147103	0.103856	-0.0636461		0.318848	0.0860989	-0.0392316		0.297071	0.0681746	-0.135508		0.355856	0.0340476	-0.141102		0.37643	0.052894	-0.0413638		0.42427	0.0410239	-0.0664997		
39	0.633333	0.66003	1.35775	-0.00165499		0.556326	1.50662	0.156479		0.583485	1.50932	-0.183297		0.719363	1.743	0.000700769		0.611393	1.03968	0.119474		0.609034	1.04294	-0.142707		0.412388	1.03496	0.00213573		0.644122	0.748426	0.174756		0.733351	0.717188	0.089813		0.683608	0.633505	0.167736		0.683871	0.539742	0.146897		0.705026	0.526667	0.0270049		0.689114	0.447634	0.155838		0.778194	0.441753	0.112875		0.732039	0.373038	0.169469		0.836116	0.106714	0.152729		0.850335	0.124861	0.0649546		0.787216	0.0601888	0.0956504		0.917315	0.12722	0.0729051		0.913143	0.100088	0.178635		1.00428	0.111244	0.19435		1.00838	0.131171	0.0870157		1.06234	0.152623	0.123759		0.476253	0.730737	-0.187612		0.546792	0.66693	-0.120227		0.435933	0.630058	-0.167731		0.373454	0.514224	-0.145094		0.388784	0.513943	-0.0298546		0.341633	0.440328	-0.157561		0.369156	0.376541	-0.105737		0.307888	0.407431	-0.164807		0.205855	0.111457	-0.12172		0.229335	0.130316	-0.0322866		0.130759	0.110238	-0.0652166		0.30188	0.0879259	-0.0401684		0.280063	0.0710311	-0.136622		0.33797	0.0354215	-0.142135		0.358593	0.0532526	-0.0422212		0.406219	0.0402686	-0.0672137		
40	0.65	0.661193	1.35705	0.00249942		0.557254	1.5054	0.160971		0.584286	1.50884	-0.178808		0.719771	1.74241	0.00561332		0.614045	1.03878	0.122166		0.609506	1.04121	-0.139996		0.41406	1.03406	0.00650541		0.648637	0.748729	0.177666		0.738103	0.718926	0.0924576		0.689546	0.634339	0.170152		0.690947	0.540664	0.148964		0.712058	0.528299	0.0289889		0.694288	0.448855	0.157289		0.782951	0.439509	0.114079		0.73398	0.372362	0.170186		0.82644	0.101953	0.150939		0.841265	0.120227	0.0632917		0.774586	0.059129	0.0936795		0.90836	0.118464	0.0708732		0.903126	0.0904701	0.176331		0.994852	0.0959534	0.191619		0.999571	0.116777	0.0844808		1.05492	0.134541	0.121128		0.476387	0.729827	-0.184734		0.54623	0.665444	-0.117172		0.435463	0.629281	-0.165428		0.37229	0.513679	-0.143544		0.386965	0.512928	-0.0282208		0.338449	0.440804	-0.156499		0.363287	0.375877	-0.104733		0.303591	0.409173	-0.164106		0.190642	0.116924	-0.122868		0.214158	0.134599	-0.033202		0.115169	0.117791	-0.0668246		0.285364	0.0901073	-0.0408491		0.263635	0.0743266	-0.137511		0.320451	0.0369756	-0.142841		0.340996	0.0537133	-0.0427221		0.388352	0.0393814	-0.0674873		
41	0.666667	0.662753	1.35708	0.00715293		0.558742	1.50415	0.16677		0.585219	1.5099	-0.173021		0.720485	1.74255	0.0127295		0.616938	1.03833	0.124451		0.61065	1.0404	-0.137678		0.416173	1.03388	0.0101378		0.653055	0.749511	0.180106		0.74264	0.720782	0.0946536		0.695113	0.635558	0.172289		0.697423	0.541942	0.15092		0.718405	0.530019	0.0308773		0.698788	0.450613	0.158821		0.786829	0.437564	0.1153		0.735018	0.372322	0.171103		0.815122	0.0981487	0.149819		0.830536	0.116321	0.0622514		0.760345	0.0593114	0.0925568		0.897487	0.110204	0.0693574		0.891147	0.081607	0.174593		0.983131	0.081083	0.189292		0.988489	0.102574	0.0823151		1.04509	0.116424	0.118736		0.477938	0.72949	-0.182273		0.5473	0.664907	-0.114408		0.436788	0.628954	-0.1634		0.373358	0.513382	-0.142111		0.387334	0.512404	-0.0267031		0.33746	0.441653	-0.155486		0.359292	0.375669	-0.103702		0.301427	0.411456	-0.163437		0.176599	0.123853	-0.12381		0.200115	0.140371	-0.0339237		0.100793	0.127596	-0.0683349		0.26955	0.0931	-0.04115		0.247948	0.0784194	-0.138013		0.303273	0.0388489	-0.143013		0.323702	0.0545251	-0.0426986		0.370639	0.0383768	-0.0671437		
42	0.683333	0.663598	1.35757	0.0118191		0.559518	1.50314	0.172755		0.585258	1.51151	-0.167038		0.720272	1.74314	0.020171		0.618854	1.03866	0.127187		0.612008	1.04048	-0.134929		0.417854	1.03382	0.0133031		0.657514	0.751173	0.182628		0.747182	0.723589	0.0968863		0.700928	0.637744	0.174608		0.704311	0.544177	0.153169		0.725073	0.532585	0.0330556		0.703686	0.453607	0.160761		0.790809	0.436449	0.11682		0.736018	0.373539	0.172454		0.802296	0.0958495	0.149294		0.818276	0.113747	0.0617717		0.744998	0.0608199	0.0921085		0.884811	0.103569	0.0684238		0.877371	0.074619	0.17349		0.969241	0.0684703	0.187616		0.975264	0.0903988	0.0807641		1.0328	0.100558	0.116932		0.481058	0.729428	-0.179761		0.55034	0.66508	-0.111592		0.440285	0.628668	-0.16127		0.377291	0.512761	-0.140511		0.390609	0.511681	-0.0250263		0.339306	0.442369	-0.154311		0.357722	0.375339	-0.102543		0.302002	0.413857	-0.162617		0.163951	0.132125	-0.124716		0.187499	0.147346	-0.0346099		0.0879902	0.139564	-0.0698651		0.254563	0.0965767	-0.0413479		0.233063	0.0831516	-0.138416		0.286367	0.0408546	-0.143034		0.306717	0.0553277	-0.0425226		0.352985	0.0368753	-0.0666088		
43	0.7	0.666051	1.35868	0.0159553		0.561775	1.50302	0.177874		0.587248	1.51358	-0.161879		0.7219	1.74431	0.0266781		0.622714	1.04075	0.129287		0.614576	1.04119	-0.132799		0.421186	1.03432	0.01642		0.663258	0.753377	0.185129		0.752624	0.726259	0.0989241		0.707277	0.640194	0.176936		0.71108	0.546636	0.155527		0.731266	0.535097	0.035311		0.708255	0.456943	0.162971		0.794123	0.435539	0.118428		0.736523	0.375282	0.174162		0.788388	0.0946674	0.149543		0.804738	0.112084	0.0619914		0.729009	0.0628885	0.0925862		0.870699	0.0984509	0.0681834		0.862414	0.0694841	0.173182		0.953928	0.0585348	0.186703		0.960423	0.0805704	0.0799003		1.01863	0.0875896	0.115742		0.486695	0.729735	-0.17719		0.556281	0.665906	-0.108843		0.446781	0.628566	-0.159057		0.38478	0.51204	-0.13878		0.397615	0.510869	-0.0232415		0.344682	0.443232	-0.15302		0.359313	0.375179	-0.101379		0.306026	0.416691	-0.161667		0.153527	0.142254	-0.125667		0.177233	0.155955	-0.035358		0.0778117	0.154431	-0.0714253		0.241029	0.100771	-0.0416184		0.219511	0.0888663	-0.138881		0.270017	0.0432285	-0.143132		0.290426	0.0562497	-0.0424344		0.335607	0.0348817	-0.0661718		
44	0.716667	0.667613	1.3606	0.0209967		0.562515	1.50314	0.183979		0.588441	1.51669	-0.155633		0.721879	1.74636	0.035079		0.626047	1.04332	0.131448		0.616994	1.04243	-0.130607		0.424163	1.03533	0.0193211		0.666975	0.754953	0.187581		0.755837	0.72754	0.100949		0.710633	0.641641	0.179226		0.714065	0.548063	0.157845		0.733625	0.53641	0.0375363		0.709083	0.459118	0.165218		0.793695	0.434108	0.120151		0.733824	0.376273	0.176057		0.773267	0.0937294	0.150482		0.789888	0.110646	0.0628841		0.712322	0.0645812	0.0937607		0.855248	0.0942633	0.06871		0.846288	0.0654239	0.173688		0.937333	0.0506384	0.186719		0.944206	0.0726315	0.0799312		1.00283	0.0771354	0.11549		0.493963	0.730337	-0.174777		0.564771	0.667705	-0.106577		0.456055	0.628346	-0.156951		0.396365	0.510558	-0.137035		0.409171	0.509312	-0.0214944		0.354187	0.443628	-0.151679		0.364702	0.374584	-0.100352		0.314091	0.419407	-0.160576		0.145896	0.154051	-0.126455		0.170064	0.165904	-0.0360073		0.0711624	0.171972	-0.0726103		0.229446	0.105511	-0.0420021		0.207607	0.0954936	-0.139405		0.254364	0.0460061	-0.143465		0.275166	0.0572187	-0.0426305		0.318648	0.0323756	-0.0661583		
